<svg id="visual" viewBox="0 0 960 300" width="960" height="300" xmlns="http://www.w3.org/2000/svg" xmlns:xlink="http://www.w3.org/1999/xlink" version="1.1"><rect x="0" y="0" width="960" height="300" fill="#fff"></rect><defs><linearGradient id="grad1_0" x1="68.8%" y1="0%" x2="100%" y2="100%"><stop offset="-14.000000000000007%" stop-color="#ffffff" stop-opacity="1"></stop><stop offset="114.00000000000001%" stop-color="#ffffff" stop-opacity="1"></stop></linearGradient></defs><defs><linearGradient id="grad2_0" x1="0%" y1="0%" x2="31.3%" y2="100%"><stop offset="-14.000000000000007%" stop-color="#ffffff" stop-opacity="1"></stop><stop offset="114.00000000000001%" stop-color="#ffffff" stop-opacity="1"></stop></linearGradient></defs><g transform="translate(960, 0)"><path d="M0 270C-31.4 259.8 -62.8 249.6 -99.1 239.3C-135.4 229 -176.6 218.6 -190.9 190.9C-205.2 163.2 -192.7 118.1 -201.4 83.4C-210.1 48.7 -240.1 24.4 -270 0L0 0Z" fill="#8fb3ff"></path></g><g transform="translate(0, 300)"><path d="M0 -270C30.8 -257.1 61.6 -244.2 96.8 -233.7C132 -223.3 171.6 -215.4 190.9 -190.9C210.2 -166.4 209.2 -125.3 219 -90.7C228.8 -56.1 249.4 -28.1 270 0L0 0Z" fill="#8fb3ff"></path></g></svg>