<svg id="visual" viewBox="0 0 900 450" width="900" height="450" xmlns="http://www.w3.org/2000/svg" xmlns:xlink="http://www.w3.org/1999/xlink" version="1.1"><rect x="0" y="0" width="900" height="450" fill="#fff"></rect><defs><linearGradient id="grad1_0" x1="50%" y1="0%" x2="100%" y2="100%"><stop offset="10%" stop-color="#63f0d4" stop-opacity="1"></stop><stop offset="90%" stop-color="#63f0d4" stop-opacity="1"></stop></linearGradient></defs><defs><linearGradient id="grad1_1" x1="50%" y1="0%" x2="100%" y2="100%"><stop offset="10%" stop-color="#63f0d4" stop-opacity="1"></stop><stop offset="90%" stop-color="#ffffff" stop-opacity="1"></stop></linearGradient></defs><defs><linearGradient id="grad2_0" x1="0%" y1="0%" x2="50%" y2="100%"><stop offset="10%" stop-color="#63f0d4" stop-opacity="1"></stop><stop offset="90%" stop-color="#63f0d4" stop-opacity="1"></stop></linearGradient></defs><defs><linearGradient id="grad2_1" x1="0%" y1="0%" x2="50%" y2="100%"><stop offset="10%" stop-color="#ffffff" stop-opacity="1"></stop><stop offset="90%" stop-color="#63f0d4" stop-opacity="1"></stop></linearGradient></defs><g transform="translate(900, 0)"><path d="M0 180C-21 167.7 -42 155.5 -59.7 144.1C-77.4 132.8 -91.9 122.3 -111 111C-130.2 99.7 -154 87.5 -166.3 68.9C-178.6 50.2 -179.3 25.1 -180 0L0 0Z" fill="#bbf9e9"></path><path d="M0 90C-10.5 83.9 -21 77.7 -29.8 72.1C-38.7 66.4 -45.9 61.2 -55.5 55.5C-65.1 49.9 -77 43.8 -83.1 34.4C-89.3 25.1 -89.6 12.6 -90 0L0 0Z" fill="#63f0d4"></path></g><g transform="translate(0, 450)"><path d="M0 -180C26.1 -179.9 52.2 -179.8 68.9 -166.3C85.5 -152.8 92.7 -126 108.9 -108.9C125.1 -91.8 150.2 -84.3 163.5 -67.7C176.9 -51.2 178.4 -25.6 180 0L0 0Z" fill="#bbf9e9"></path><path d="M0 -90C13.1 -89.9 26.1 -89.9 34.4 -83.1C42.8 -76.4 46.4 -63 54.4 -54.4C62.5 -45.9 75.1 -42.1 81.8 -33.9C88.4 -25.6 89.2 -12.8 90 0L0 0Z" fill="#63f0d4"></path></g></svg>