<svg id="visual" viewBox="0 0 900 675" width="900" height="675" xmlns="http://www.w3.org/2000/svg" xmlns:xlink="http://www.w3.org/1999/xlink" version="1.1"><path d="M0 362L90 362L90 277L180 277L180 396L270 396L270 296L360 296L360 266L450 266L450 298L540 298L540 415L630 415L630 260L720 260L720 294L810 294L810 319L900 319L900 241L900 0L900 0L810 0L810 0L720 0L720 0L630 0L630 0L540 0L540 0L450 0L450 0L360 0L360 0L270 0L270 0L180 0L180 0L90 0L90 0L0 0Z" fill="#223051" stroke-linecap="square" stroke-linejoin="miter"></path></svg>