<svg id="visual" viewBox="0 0 900 450" width="900" height="450" xmlns="http://www.w3.org/2000/svg" xmlns:xlink="http://www.w3.org/1999/xlink" version="1.1"><path d="M0 293L90 293L90 313L180 313L180 209L270 209L270 243L360 243L360 168L450 168L450 281L540 281L540 186L630 186L630 301L720 301L720 222L810 222L810 212L900 212L900 261L900 0L900 0L810 0L810 0L720 0L720 0L630 0L630 0L540 0L540 0L450 0L450 0L360 0L360 0L270 0L270 0L180 0L180 0L90 0L90 0L0 0Z" fill="#223051" stroke-linecap="square" stroke-linejoin="miter"></path></svg>