<svg id="visual" viewBox="0 0 960 300" width="960" height="300" xmlns="http://www.w3.org/2000/svg" xmlns:xlink="http://www.w3.org/1999/xlink" version="1.1"><path d="M0 135L11.5 136.7C23 138.3 46 141.7 68.8 143.7C91.7 145.7 114.3 146.3 137.2 138.8C160 131.3 183 115.7 205.8 101.2C228.7 86.7 251.3 73.3 274.2 76.8C297 80.3 320 100.7 342.8 110C365.7 119.3 388.3 117.7 411.2 124.2C434 130.7 457 145.3 480 146.5C503 147.7 526 135.3 548.8 119.7C571.7 104 594.3 85 617.2 78.2C640 71.3 663 76.7 685.8 85.3C708.7 94 731.3 106 754.2 113.5C777 121 800 124 822.8 124.7C845.7 125.3 868.3 123.7 891.2 115.3C914 107 937 92 948.5 84.5L960 77L960 0L948.5 0C937 0 914 0 891.2 0C868.3 0 845.7 0 822.8 0C800 0 777 0 754.2 0C731.3 0 708.7 0 685.8 0C663 0 640 0 617.2 0C594.3 0 571.7 0 548.8 0C526 0 503 0 480 0C457 0 434 0 411.2 0C388.3 0 365.7 0 342.8 0C320 0 297 0 274.2 0C251.3 0 228.7 0 205.8 0C183 0 160 0 137.2 0C114.3 0 91.7 0 68.8 0C46 0 23 0 11.5 0L0 0Z" fill="#8fb3ff" stroke-linecap="round" stroke-linejoin="miter"></path></svg>