<svg id="visual" viewBox="0 0 960 300" width="960" height="300" xmlns="http://www.w3.org/2000/svg" xmlns:xlink="http://www.w3.org/1999/xlink" version="1.1"><path d="M0 108L10.7 103C21.3 98 42.7 88 64 89C85.3 90 106.7 102 128 106.8C149.3 111.7 170.7 109.3 192 103.7C213.3 98 234.7 89 256 83.7C277.3 78.3 298.7 76.7 320 79.7C341.3 82.7 362.7 90.3 384 95.8C405.3 101.3 426.7 104.7 448 105C469.3 105.3 490.7 102.7 512 97.5C533.3 92.3 554.7 84.7 576 80.7C597.3 76.7 618.7 76.3 640 81C661.3 85.7 682.7 95.3 704 95.3C725.3 95.3 746.7 85.7 768 85C789.3 84.3 810.7 92.7 832 97C853.3 101.3 874.7 101.7 896 97.5C917.3 93.3 938.7 84.7 949.3 80.3L960 76L960 0L949.3 0C938.7 0 917.3 0 896 0C874.7 0 853.3 0 832 0C810.7 0 789.3 0 768 0C746.7 0 725.3 0 704 0C682.7 0 661.3 0 640 0C618.7 0 597.3 0 576 0C554.7 0 533.3 0 512 0C490.7 0 469.3 0 448 0C426.7 0 405.3 0 384 0C362.7 0 341.3 0 320 0C298.7 0 277.3 0 256 0C234.7 0 213.3 0 192 0C170.7 0 149.3 0 128 0C106.7 0 85.3 0 64 0C42.7 0 21.3 0 10.7 0L0 0Z" fill="#c9f3f3"></path><path d="M0 71L10.7 73.8C21.3 76.7 42.7 82.3 64 86.7C85.3 91 106.7 94 128 93.8C149.3 93.7 170.7 90.3 192 90.7C213.3 91 234.7 95 256 97C277.3 99 298.7 99 320 96.5C341.3 94 362.7 89 384 87.5C405.3 86 426.7 88 448 84C469.3 80 490.7 70 512 71.3C533.3 72.7 554.7 85.3 576 85.2C597.3 85 618.7 72 640 66.3C661.3 60.7 682.7 62.3 704 68C725.3 73.7 746.7 83.3 768 85.7C789.3 88 810.7 83 832 78.3C853.3 73.7 874.7 69.3 896 67.7C917.3 66 938.7 67 949.3 67.5L960 68L960 0L949.3 0C938.7 0 917.3 0 896 0C874.7 0 853.3 0 832 0C810.7 0 789.3 0 768 0C746.7 0 725.3 0 704 0C682.7 0 661.3 0 640 0C618.7 0 597.3 0 576 0C554.7 0 533.3 0 512 0C490.7 0 469.3 0 448 0C426.7 0 405.3 0 384 0C362.7 0 341.3 0 320 0C298.7 0 277.3 0 256 0C234.7 0 213.3 0 192 0C170.7 0 149.3 0 128 0C106.7 0 85.3 0 64 0C42.7 0 21.3 0 10.7 0L0 0Z" fill="#a8e7f5"></path><path d="M0 77L10.7 76C21.3 75 42.7 73 64 72.3C85.3 71.7 106.7 72.3 128 69.7C149.3 67 170.7 61 192 58.3C213.3 55.7 234.7 56.3 256 59.8C277.3 63.3 298.7 69.7 320 70.2C341.3 70.7 362.7 65.3 384 60.5C405.3 55.7 426.7 51.3 448 48.8C469.3 46.3 490.7 45.7 512 49C533.3 52.3 554.7 59.7 576 63.8C597.3 68 618.7 69 640 66C661.3 63 682.7 56 704 51.7C725.3 47.3 746.7 45.7 768 45.8C789.3 46 810.7 48 832 48.8C853.3 49.7 874.7 49.3 896 54.3C917.3 59.3 938.7 69.7 949.3 74.8L960 80L960 0L949.3 0C938.7 0 917.3 0 896 0C874.7 0 853.3 0 832 0C810.7 0 789.3 0 768 0C746.7 0 725.3 0 704 0C682.7 0 661.3 0 640 0C618.7 0 597.3 0 576 0C554.7 0 533.3 0 512 0C490.7 0 469.3 0 448 0C426.7 0 405.3 0 384 0C362.7 0 341.3 0 320 0C298.7 0 277.3 0 256 0C234.7 0 213.3 0 192 0C170.7 0 149.3 0 128 0C106.7 0 85.3 0 64 0C42.7 0 21.3 0 10.7 0L0 0Z" fill="#8ed9fb"></path><path d="M0 39L10.7 37C21.3 35 42.7 31 64 32C85.3 33 106.7 39 128 41.3C149.3 43.7 170.7 42.3 192 43.7C213.3 45 234.7 49 256 48.8C277.3 48.7 298.7 44.3 320 43C341.3 41.7 362.7 43.3 384 44.2C405.3 45 426.7 45 448 44.7C469.3 44.3 490.7 43.7 512 45.8C533.3 48 554.7 53 576 52.7C597.3 52.3 618.7 46.7 640 44.3C661.3 42 682.7 43 704 45.2C725.3 47.3 746.7 50.7 768 48.8C789.3 47 810.7 40 832 36.3C853.3 32.7 874.7 32.3 896 35.8C917.3 39.3 938.7 46.7 949.3 50.3L960 54L960 0L949.3 0C938.7 0 917.3 0 896 0C874.7 0 853.3 0 832 0C810.7 0 789.3 0 768 0C746.7 0 725.3 0 704 0C682.7 0 661.3 0 640 0C618.7 0 597.3 0 576 0C554.7 0 533.3 0 512 0C490.7 0 469.3 0 448 0C426.7 0 405.3 0 384 0C362.7 0 341.3 0 320 0C298.7 0 277.3 0 256 0C234.7 0 213.3 0 192 0C170.7 0 149.3 0 128 0C106.7 0 85.3 0 64 0C42.7 0 21.3 0 10.7 0L0 0Z" fill="#83c8ff"></path><path d="M0 15L10.7 14.7C21.3 14.3 42.7 13.7 64 16.2C85.3 18.7 106.7 24.3 128 28.2C149.3 32 170.7 34 192 31.2C213.3 28.3 234.7 20.7 256 18C277.3 15.3 298.7 17.7 320 20.2C341.3 22.7 362.7 25.3 384 24.3C405.3 23.3 426.7 18.7 448 18.2C469.3 17.7 490.7 21.3 512 24.2C533.3 27 554.7 29 576 29C597.3 29 618.7 27 640 23.8C661.3 20.7 682.7 16.3 704 15.2C725.3 14 746.7 16 768 16.7C789.3 17.3 810.7 16.7 832 17.3C853.3 18 874.7 20 896 20.7C917.3 21.3 938.7 20.7 949.3 20.3L960 20L960 0L949.3 0C938.7 0 917.3 0 896 0C874.7 0 853.3 0 832 0C810.7 0 789.3 0 768 0C746.7 0 725.3 0 704 0C682.7 0 661.3 0 640 0C618.7 0 597.3 0 576 0C554.7 0 533.3 0 512 0C490.7 0 469.3 0 448 0C426.7 0 405.3 0 384 0C362.7 0 341.3 0 320 0C298.7 0 277.3 0 256 0C234.7 0 213.3 0 192 0C170.7 0 149.3 0 128 0C106.7 0 85.3 0 64 0C42.7 0 21.3 0 10.7 0L0 0Z" fill="#8fb3ff"></path></svg>