<svg id="visual" viewBox="0 0 1920 1080" width="1920" height="1080" xmlns="http://www.w3.org/2000/svg" xmlns:xlink="http://www.w3.org/1999/xlink" version="1.1"><g stroke-width="1" stroke-linejoin="bevel"><path d="M857.3 534L1045.7 348L887.3 355Z" fill="#e7ebf3" stroke="#e7ebf3"></path><path d="M857.3 534L1072.7 557L1045.7 348Z" fill="#ffffff" stroke="#ffffff"></path><path d="M857.3 534L1081.7 702L1072.7 557Z" fill="#d0d8e8" stroke="#d0d8e8"></path><path d="M1045.7 348L856.3 179L887.3 355Z" fill="#d0d8e8" stroke="#d0d8e8"></path><path d="M634 378L666 544L857.3 534Z" fill="#e2e7f1" stroke="#e2e7f1"></path><path d="M1072.7 557L1259 343L1045.7 348Z" fill="#d5dcea" stroke="#d5dcea"></path><path d="M1045.7 348L1050.7 153L856.3 179Z" fill="#e2e7f1" stroke="#e2e7f1"></path><path d="M1303 529L1259 343L1072.7 557Z" fill="#eceff5" stroke="#eceff5"></path><path d="M634 378L857.3 534L887.3 355Z" fill="#e2e7f1" stroke="#e2e7f1"></path><path d="M857.3 534L814.3 756L1081.7 702Z" fill="#fafbfd" stroke="#fafbfd"></path><path d="M1241 167L1050.7 153L1045.7 348Z" fill="#e7ebf3" stroke="#e7ebf3"></path><path d="M666 544L814.3 756L857.3 534Z" fill="#f5f7fa" stroke="#f5f7fa"></path><path d="M1245 705L1303 529L1072.7 557Z" fill="#eceff5" stroke="#eceff5"></path><path d="M856.3 179L634 378L887.3 355Z" fill="#e2e7f1" stroke="#e2e7f1"></path><path d="M1088.7 879L1245 705L1081.7 702Z" fill="#d9e0ec" stroke="#d9e0ec"></path><path d="M1081.7 702L1245 705L1072.7 557Z" fill="#f1f3f8" stroke="#f1f3f8"></path><path d="M1462.3 357L1241 167L1259 343Z" fill="#d0d8e8" stroke="#d0d8e8"></path><path d="M1259 343L1241 167L1045.7 348Z" fill="#d0d8e8" stroke="#d0d8e8"></path><path d="M666 544L660 720L814.3 756Z" fill="#d0d8e8" stroke="#d0d8e8"></path><path d="M391.7 542L660 720L666 544Z" fill="#d5dcea" stroke="#d5dcea"></path><path d="M879.3 922L1081.7 702L814.3 756Z" fill="#f5f7fa" stroke="#f5f7fa"></path><path d="M879.3 922L1088.7 879L1081.7 702Z" fill="#ffffff" stroke="#ffffff"></path><path d="M830.3 0L645 173L856.3 179Z" fill="#d9e0ec" stroke="#d9e0ec"></path><path d="M856.3 179L645 173L634 378Z" fill="#e7ebf3" stroke="#e7ebf3"></path><path d="M1251 0L1029.7 0L1050.7 153Z" fill="#ffffff" stroke="#ffffff"></path><path d="M1050.7 153L1029.7 0L856.3 179Z" fill="#dee3ef" stroke="#dee3ef"></path><path d="M652 863L879.3 922L814.3 756Z" fill="#d0d8e8" stroke="#d0d8e8"></path><path d="M1029.7 0L830.3 0L856.3 179Z" fill="#d0d8e8" stroke="#d0d8e8"></path><path d="M1088.7 879L1244 875L1245 705Z" fill="#e2e7f1" stroke="#e2e7f1"></path><path d="M1527.3 548L1462.3 357L1303 529Z" fill="#fafbfd" stroke="#fafbfd"></path><path d="M1036.7 1080L1244 875L1088.7 879Z" fill="#e2e7f1" stroke="#e2e7f1"></path><path d="M1527.3 548L1303 529L1490.3 702Z" fill="#f1f3f8" stroke="#f1f3f8"></path><path d="M1303 529L1462.3 357L1259 343Z" fill="#d9e0ec" stroke="#d9e0ec"></path><path d="M660 720L652 863L814.3 756Z" fill="#dee3ef" stroke="#dee3ef"></path><path d="M392.7 743L652 863L660 720Z" fill="#f1f3f8" stroke="#f1f3f8"></path><path d="M645 173L454.7 356L634 378Z" fill="#e2e7f1" stroke="#e2e7f1"></path><path d="M634 378L454.7 356L666 544Z" fill="#ffffff" stroke="#ffffff"></path><path d="M1471.3 0L1251 0L1241 167Z" fill="#fafbfd" stroke="#fafbfd"></path><path d="M1241 167L1251 0L1050.7 153Z" fill="#ffffff" stroke="#ffffff"></path><path d="M1490.3 702L1303 529L1245 705Z" fill="#ffffff" stroke="#ffffff"></path><path d="M830.3 0L645 0L645 173Z" fill="#fafbfd" stroke="#fafbfd"></path><path d="M645 173L439.7 161L454.7 356Z" fill="#d9e0ec" stroke="#d9e0ec"></path><path d="M1244 875L1490.3 702L1245 705Z" fill="#eceff5" stroke="#eceff5"></path><path d="M454.7 356L391.7 542L666 544Z" fill="#e7ebf3" stroke="#e7ebf3"></path><path d="M1462.3 357L1504.3 170L1241 167Z" fill="#eceff5" stroke="#eceff5"></path><path d="M1704.7 328L1504.3 170L1462.3 357Z" fill="#e7ebf3" stroke="#e7ebf3"></path><path d="M456.7 0L439.7 161L645 173Z" fill="#d5dcea" stroke="#d5dcea"></path><path d="M179.3 396L246.3 539L391.7 542Z" fill="#ffffff" stroke="#ffffff"></path><path d="M828.3 1080L1036.7 1080L879.3 922Z" fill="#dee3ef" stroke="#dee3ef"></path><path d="M879.3 922L1036.7 1080L1088.7 879Z" fill="#f1f3f8" stroke="#f1f3f8"></path><path d="M1244 875L1510.3 916L1490.3 702Z" fill="#d5dcea" stroke="#d5dcea"></path><path d="M669 1080L828.3 1080L879.3 922Z" fill="#e2e7f1" stroke="#e2e7f1"></path><path d="M391.7 542L392.7 743L660 720Z" fill="#fafbfd" stroke="#fafbfd"></path><path d="M652 863L669 1080L879.3 922Z" fill="#e2e7f1" stroke="#e2e7f1"></path><path d="M1504.3 170L1471.3 0L1241 167Z" fill="#d0d8e8" stroke="#d0d8e8"></path><path d="M445.7 1080L669 1080L652 863Z" fill="#d5dcea" stroke="#d5dcea"></path><path d="M645 0L456.7 0L645 173Z" fill="#fafbfd" stroke="#fafbfd"></path><path d="M179.3 396L391.7 542L454.7 356Z" fill="#f5f7fa" stroke="#f5f7fa"></path><path d="M392.7 743L419.7 882L652 863Z" fill="#d0d8e8" stroke="#d0d8e8"></path><path d="M1036.7 1080L1307 1080L1244 875Z" fill="#d5dcea" stroke="#d5dcea"></path><path d="M1307 1080L1510.3 916L1244 875Z" fill="#dee3ef" stroke="#dee3ef"></path><path d="M1728.7 684L1678.7 500L1527.3 548Z" fill="#e2e7f1" stroke="#e2e7f1"></path><path d="M1728.7 684L1527.3 548L1490.3 702Z" fill="#d5dcea" stroke="#d5dcea"></path><path d="M1527.3 548L1678.7 500L1462.3 357Z" fill="#f1f3f8" stroke="#f1f3f8"></path><path d="M1504.3 170L1716.7 140L1471.3 0Z" fill="#d0d8e8" stroke="#d0d8e8"></path><path d="M391.7 542L246.3 539L392.7 743Z" fill="#e2e7f1" stroke="#e2e7f1"></path><path d="M392.7 743L203.3 893L419.7 882Z" fill="#fafbfd" stroke="#fafbfd"></path><path d="M179.3 396L454.7 356L176.3 215Z" fill="#d5dcea" stroke="#d5dcea"></path><path d="M1678.7 500L1704.7 328L1462.3 357Z" fill="#fafbfd" stroke="#fafbfd"></path><path d="M1669.7 884L1728.7 684L1490.3 702Z" fill="#f5f7fa" stroke="#f5f7fa"></path><path d="M1678.7 500L1920 532L1704.7 328Z" fill="#e2e7f1" stroke="#e2e7f1"></path><path d="M176.3 215L454.7 356L439.7 161Z" fill="#dee3ef" stroke="#dee3ef"></path><path d="M1920 189L1716.7 140L1704.7 328Z" fill="#f5f7fa" stroke="#f5f7fa"></path><path d="M1704.7 328L1716.7 140L1504.3 170Z" fill="#fafbfd" stroke="#fafbfd"></path><path d="M419.7 882L445.7 1080L652 863Z" fill="#e7ebf3" stroke="#e7ebf3"></path><path d="M246.3 1080L445.7 1080L419.7 882Z" fill="#f5f7fa" stroke="#f5f7fa"></path><path d="M190.3 694L392.7 743L246.3 539Z" fill="#fafbfd" stroke="#fafbfd"></path><path d="M0 529L190.3 694L246.3 539Z" fill="#e2e7f1" stroke="#e2e7f1"></path><path d="M1510.3 916L1669.7 884L1490.3 702Z" fill="#d9e0ec" stroke="#d9e0ec"></path><path d="M1509.3 1080L1669.7 884L1510.3 916Z" fill="#d0d8e8" stroke="#d0d8e8"></path><path d="M1307 1080L1509.3 1080L1510.3 916Z" fill="#eceff5" stroke="#eceff5"></path><path d="M230.3 0L176.3 215L439.7 161Z" fill="#e7ebf3" stroke="#e7ebf3"></path><path d="M456.7 0L230.3 0L439.7 161Z" fill="#eceff5" stroke="#eceff5"></path><path d="M190.3 694L203.3 893L392.7 743Z" fill="#fafbfd" stroke="#fafbfd"></path><path d="M1920 0L1733.7 0L1716.7 140Z" fill="#d9e0ec" stroke="#d9e0ec"></path><path d="M1716.7 140L1733.7 0L1471.3 0Z" fill="#f1f3f8" stroke="#f1f3f8"></path><path d="M1920 729L1920 532L1728.7 684Z" fill="#d9e0ec" stroke="#d9e0ec"></path><path d="M1728.7 684L1920 532L1678.7 500Z" fill="#fafbfd" stroke="#fafbfd"></path><path d="M203.3 893L246.3 1080L419.7 882Z" fill="#d5dcea" stroke="#d5dcea"></path><path d="M1920 532L1920 331L1704.7 328Z" fill="#ffffff" stroke="#ffffff"></path><path d="M190.3 694L0 701L203.3 893Z" fill="#d5dcea" stroke="#d5dcea"></path><path d="M203.3 893L0 1080L246.3 1080Z" fill="#d0d8e8" stroke="#d0d8e8"></path><path d="M179.3 396L0 529L246.3 539Z" fill="#ffffff" stroke="#ffffff"></path><path d="M0 386L0 529L179.3 396Z" fill="#f5f7fa" stroke="#f5f7fa"></path><path d="M0 386L179.3 396L176.3 215Z" fill="#f1f3f8" stroke="#f1f3f8"></path><path d="M0 205L0 386L176.3 215Z" fill="#dee3ef" stroke="#dee3ef"></path><path d="M1509.3 1080L1733.7 1080L1669.7 884Z" fill="#f5f7fa" stroke="#f5f7fa"></path><path d="M1669.7 884L1920 729L1728.7 684Z" fill="#fafbfd" stroke="#fafbfd"></path><path d="M1920 930L1920 729L1669.7 884Z" fill="#e2e7f1" stroke="#e2e7f1"></path><path d="M1920 331L1920 189L1704.7 328Z" fill="#d9e0ec" stroke="#d9e0ec"></path><path d="M0 529L0 701L190.3 694Z" fill="#e2e7f1" stroke="#e2e7f1"></path><path d="M0 0L0 205L176.3 215Z" fill="#fafbfd" stroke="#fafbfd"></path><path d="M1920 189L1920 0L1716.7 140Z" fill="#e7ebf3" stroke="#e7ebf3"></path><path d="M1733.7 1080L1920 930L1669.7 884Z" fill="#e7ebf3" stroke="#e7ebf3"></path><path d="M0 701L0 919L203.3 893Z" fill="#dee3ef" stroke="#dee3ef"></path><path d="M230.3 0L0 0L176.3 215Z" fill="#ffffff" stroke="#ffffff"></path><path d="M1733.7 1080L1920 1080L1920 930Z" fill="#d5dcea" stroke="#d5dcea"></path><path d="M0 919L0 1080L203.3 893Z" fill="#d0d8e8" stroke="#d0d8e8"></path></g></svg>