<svg id="visual" viewBox="0 0 960 300" width="960" height="300" xmlns="http://www.w3.org/2000/svg" xmlns:xlink="http://www.w3.org/1999/xlink" version="1.1"><path d="M0 91L17.8 101C35.7 111 71.3 131 106.8 120.2C142.3 109.3 177.7 67.7 213.2 70.8C248.7 74 284.3 122 320 124.2C355.7 126.3 391.3 82.7 426.8 87.3C462.3 92 497.7 145 533.2 152.5C568.7 160 604.3 122 640 116.2C675.7 110.3 711.3 136.7 746.8 134.2C782.3 131.7 817.7 100.3 853.2 82.7C888.7 65 924.3 61 942.2 59L960 57L960 0L942.2 0C924.3 0 888.7 0 853.2 0C817.7 0 782.3 0 746.8 0C711.3 0 675.7 0 640 0C604.3 0 568.7 0 533.2 0C497.7 0 462.3 0 426.8 0C391.3 0 355.7 0 320 0C284.3 0 248.7 0 213.2 0C177.7 0 142.3 0 106.8 0C71.3 0 35.7 0 17.8 0L0 0Z" fill="#8fb3ff" stroke-linecap="round" stroke-linejoin="miter"></path></svg>