<svg id="visual" viewBox="0 0 960 300" width="960" height="300" xmlns="http://www.w3.org/2000/svg" xmlns:xlink="http://www.w3.org/1999/xlink" version="1.1"><path d="M0 190L10.7 195C21.3 200 42.7 210 64 209C85.3 208 106.7 196 128 191.2C149.3 186.3 170.7 188.7 192 194.3C213.3 200 234.7 209 256 214.3C277.3 219.7 298.7 221.3 320 218.3C341.3 215.3 362.7 207.7 384 202.2C405.3 196.7 426.7 193.3 448 193C469.3 192.7 490.7 195.3 512 200.5C533.3 205.7 554.7 213.3 576 217.3C597.3 221.3 618.7 221.7 640 217C661.3 212.3 682.7 202.7 704 202.7C725.3 202.7 746.7 212.3 768 213C789.3 213.7 810.7 205.3 832 201C853.3 196.7 874.7 196.3 896 200.5C917.3 204.7 938.7 213.3 949.3 217.7L960 222L960 301L949.3 301C938.7 301 917.3 301 896 301C874.7 301 853.3 301 832 301C810.7 301 789.3 301 768 301C746.7 301 725.3 301 704 301C682.7 301 661.3 301 640 301C618.7 301 597.3 301 576 301C554.7 301 533.3 301 512 301C490.7 301 469.3 301 448 301C426.7 301 405.3 301 384 301C362.7 301 341.3 301 320 301C298.7 301 277.3 301 256 301C234.7 301 213.3 301 192 301C170.7 301 149.3 301 128 301C106.7 301 85.3 301 64 301C42.7 301 21.3 301 10.7 301L0 301Z" fill="#c9f3f3"></path><path d="M0 227L10.7 224.2C21.3 221.3 42.7 215.7 64 211.3C85.3 207 106.7 204 128 204.2C149.3 204.3 170.7 207.7 192 207.3C213.3 207 234.7 203 256 201C277.3 199 298.7 199 320 201.5C341.3 204 362.7 209 384 210.5C405.3 212 426.7 210 448 214C469.3 218 490.7 228 512 226.7C533.3 225.3 554.7 212.7 576 212.8C597.3 213 618.7 226 640 231.7C661.3 237.3 682.7 235.7 704 230C725.3 224.3 746.7 214.7 768 212.3C789.3 210 810.7 215 832 219.7C853.3 224.3 874.7 228.7 896 230.3C917.3 232 938.7 231 949.3 230.5L960 230L960 301L949.3 301C938.7 301 917.3 301 896 301C874.7 301 853.3 301 832 301C810.7 301 789.3 301 768 301C746.7 301 725.3 301 704 301C682.7 301 661.3 301 640 301C618.7 301 597.3 301 576 301C554.7 301 533.3 301 512 301C490.7 301 469.3 301 448 301C426.7 301 405.3 301 384 301C362.7 301 341.3 301 320 301C298.7 301 277.3 301 256 301C234.7 301 213.3 301 192 301C170.7 301 149.3 301 128 301C106.7 301 85.3 301 64 301C42.7 301 21.3 301 10.7 301L0 301Z" fill="#a8e7f5"></path><path d="M0 221L10.7 222C21.3 223 42.7 225 64 225.7C85.3 226.3 106.7 225.7 128 228.3C149.3 231 170.7 237 192 239.7C213.3 242.3 234.7 241.7 256 238.2C277.3 234.7 298.7 228.3 320 227.8C341.3 227.3 362.7 232.7 384 237.5C405.3 242.3 426.7 246.7 448 249.2C469.3 251.7 490.7 252.3 512 249C533.3 245.7 554.7 238.3 576 234.2C597.3 230 618.7 229 640 232C661.3 235 682.7 242 704 246.3C725.3 250.7 746.7 252.3 768 252.2C789.3 252 810.7 250 832 249.2C853.3 248.3 874.7 248.7 896 243.7C917.3 238.7 938.7 228.3 949.3 223.2L960 218L960 301L949.3 301C938.7 301 917.3 301 896 301C874.7 301 853.3 301 832 301C810.7 301 789.3 301 768 301C746.7 301 725.3 301 704 301C682.7 301 661.3 301 640 301C618.7 301 597.3 301 576 301C554.7 301 533.3 301 512 301C490.7 301 469.3 301 448 301C426.7 301 405.3 301 384 301C362.7 301 341.3 301 320 301C298.7 301 277.3 301 256 301C234.7 301 213.3 301 192 301C170.7 301 149.3 301 128 301C106.7 301 85.3 301 64 301C42.7 301 21.3 301 10.7 301L0 301Z" fill="#8ed9fb"></path><path d="M0 259L10.7 261C21.3 263 42.7 267 64 266C85.3 265 106.7 259 128 256.7C149.3 254.3 170.7 255.7 192 254.3C213.3 253 234.7 249 256 249.2C277.3 249.3 298.7 253.7 320 255C341.3 256.3 362.7 254.7 384 253.8C405.3 253 426.7 253 448 253.3C469.3 253.7 490.7 254.3 512 252.2C533.3 250 554.7 245 576 245.3C597.3 245.7 618.7 251.3 640 253.7C661.3 256 682.7 255 704 252.8C725.3 250.7 746.7 247.3 768 249.2C789.3 251 810.7 258 832 261.7C853.3 265.3 874.7 265.7 896 262.2C917.3 258.7 938.7 251.3 949.3 247.7L960 244L960 301L949.3 301C938.7 301 917.3 301 896 301C874.7 301 853.3 301 832 301C810.7 301 789.3 301 768 301C746.7 301 725.3 301 704 301C682.7 301 661.3 301 640 301C618.7 301 597.3 301 576 301C554.7 301 533.3 301 512 301C490.7 301 469.3 301 448 301C426.7 301 405.3 301 384 301C362.7 301 341.3 301 320 301C298.7 301 277.3 301 256 301C234.7 301 213.3 301 192 301C170.7 301 149.3 301 128 301C106.7 301 85.3 301 64 301C42.7 301 21.3 301 10.7 301L0 301Z" fill="#83c8ff"></path><path d="M0 283L10.7 283.3C21.3 283.7 42.7 284.3 64 281.8C85.3 279.3 106.7 273.7 128 269.8C149.3 266 170.7 264 192 266.8C213.3 269.7 234.7 277.3 256 280C277.3 282.7 298.7 280.3 320 277.8C341.3 275.3 362.7 272.7 384 273.7C405.3 274.7 426.7 279.3 448 279.8C469.3 280.3 490.7 276.7 512 273.8C533.3 271 554.7 269 576 269C597.3 269 618.7 271 640 274.2C661.3 277.3 682.7 281.7 704 282.8C725.3 284 746.7 282 768 281.3C789.3 280.7 810.7 281.3 832 280.7C853.3 280 874.7 278 896 277.3C917.3 276.7 938.7 277.3 949.3 277.7L960 278L960 301L949.3 301C938.7 301 917.3 301 896 301C874.7 301 853.3 301 832 301C810.7 301 789.3 301 768 301C746.7 301 725.3 301 704 301C682.7 301 661.3 301 640 301C618.7 301 597.3 301 576 301C554.7 301 533.3 301 512 301C490.7 301 469.3 301 448 301C426.7 301 405.3 301 384 301C362.7 301 341.3 301 320 301C298.7 301 277.3 301 256 301C234.7 301 213.3 301 192 301C170.7 301 149.3 301 128 301C106.7 301 85.3 301 64 301C42.7 301 21.3 301 10.7 301L0 301Z" fill="#8fb3ff"></path></svg>