<svg id="visual" viewBox="0 0 960 300" width="960" height="300" xmlns="http://www.w3.org/2000/svg" xmlns:xlink="http://www.w3.org/1999/xlink" version="1.1"><path d="M0 193L22.8 194.3C45.7 195.7 91.3 198.3 137 202.7C182.7 207 228.3 213 274 210.8C319.7 208.7 365.3 198.3 411.2 198.2C457 198 503 208 548.8 212.3C594.7 216.7 640.3 215.3 686 209.8C731.7 204.3 777.3 194.7 823 191.3C868.7 188 914.3 191 937.2 192.5L960 194L960 301L937.2 301C914.3 301 868.7 301 823 301C777.3 301 731.7 301 686 301C640.3 301 594.7 301 548.8 301C503 301 457 301 411.2 301C365.3 301 319.7 301 274 301C228.3 301 182.7 301 137 301C91.3 301 45.7 301 22.8 301L0 301Z" fill="#c9f3f3"></path><path d="M0 233L22.8 230C45.7 227 91.3 221 137 218.2C182.7 215.3 228.3 215.7 274 215.8C319.7 216 365.3 216 411.2 214.7C457 213.3 503 210.7 548.8 214C594.7 217.3 640.3 226.7 686 230.7C731.7 234.7 777.3 233.3 823 228.5C868.7 223.7 914.3 215.3 937.2 211.2L960 207L960 301L937.2 301C914.3 301 868.7 301 823 301C777.3 301 731.7 301 686 301C640.3 301 594.7 301 548.8 301C503 301 457 301 411.2 301C365.3 301 319.7 301 274 301C228.3 301 182.7 301 137 301C91.3 301 45.7 301 22.8 301L0 301Z" fill="#a8e7f5"></path><path d="M0 237L22.8 237.3C45.7 237.7 91.3 238.3 137 235.5C182.7 232.7 228.3 226.3 274 225.3C319.7 224.3 365.3 228.7 411.2 231.2C457 233.7 503 234.3 548.8 235.7C594.7 237 640.3 239 686 242.2C731.7 245.3 777.3 249.7 823 249.2C868.7 248.7 914.3 243.3 937.2 240.7L960 238L960 301L937.2 301C914.3 301 868.7 301 823 301C777.3 301 731.7 301 686 301C640.3 301 594.7 301 548.8 301C503 301 457 301 411.2 301C365.3 301 319.7 301 274 301C228.3 301 182.7 301 137 301C91.3 301 45.7 301 22.8 301L0 301Z" fill="#8ed9fb"></path><path d="M0 253L22.8 255.7C45.7 258.3 91.3 263.7 137 266.5C182.7 269.3 228.3 269.7 274 266.7C319.7 263.7 365.3 257.3 411.2 254.5C457 251.7 503 252.3 548.8 250.8C594.7 249.3 640.3 245.7 686 244.3C731.7 243 777.3 244 823 243.7C868.7 243.3 914.3 241.7 937.2 240.8L960 240L960 301L937.2 301C914.3 301 868.7 301 823 301C777.3 301 731.7 301 686 301C640.3 301 594.7 301 548.8 301C503 301 457 301 411.2 301C365.3 301 319.7 301 274 301C228.3 301 182.7 301 137 301C91.3 301 45.7 301 22.8 301L0 301Z" fill="#83c8ff"></path><path d="M0 263L22.8 265.7C45.7 268.3 91.3 273.7 137 274.8C182.7 276 228.3 273 274 272.3C319.7 271.7 365.3 273.3 411.2 272.7C457 272 503 269 548.8 270.2C594.7 271.3 640.3 276.7 686 276.3C731.7 276 777.3 270 823 267.3C868.7 264.7 914.3 265.3 937.2 265.7L960 266L960 301L937.2 301C914.3 301 868.7 301 823 301C777.3 301 731.7 301 686 301C640.3 301 594.7 301 548.8 301C503 301 457 301 411.2 301C365.3 301 319.7 301 274 301C228.3 301 182.7 301 137 301C91.3 301 45.7 301 22.8 301L0 301Z" fill="#8fb3ff"></path></svg>