<svg id="visual" viewBox="0 0 900 600" width="900" height="600" xmlns="http://www.w3.org/2000/svg" xmlns:xlink="http://www.w3.org/1999/xlink" version="1.1"><g><g transform="translate(326 345)"><path d="M0 -68.6L59.4 -34.3L59.4 34.3L0 68.6L-59.4 34.3L-59.4 -34.3Z" fill="#000"></path></g><g transform="translate(551 79)"><path d="M0 -59L51.1 -29.5L51.1 29.5L0 59L-51.1 29.5L-51.1 -29.5Z" fill="#000"></path></g><g transform="translate(248 504)"><path d="M0 -51L44.2 -25.5L44.2 25.5L0 51L-44.2 25.5L-44.2 -25.5Z" fill="#000"></path></g><g transform="translate(769 522)"><path d="M0 -40L34.6 -20L34.6 20L0 40L-34.6 20L-34.6 -20Z" fill="#000"></path></g><g transform="translate(637 464)"><path d="M0 -50L43.3 -25L43.3 25L0 50L-43.3 25L-43.3 -25Z" fill="#000"></path></g><g transform="translate(142 100)"><path d="M0 -43L37.2 -21.5L37.2 21.5L0 43L-37.2 21.5L-37.2 -21.5Z" fill="#000"></path></g><g transform="translate(780 220)"><path d="M0 -41L35.5 -20.5L35.5 20.5L0 41L-35.5 20.5L-35.5 -20.5Z" fill="#000"></path></g><g transform="translate(578 236)"><path d="M0 -42L36.4 -21L36.4 21L0 42L-36.4 21L-36.4 -21Z" fill="#000"></path></g><g transform="translate(309 204)"><path d="M0 -58L50.2 -29L50.2 29L0 58L-50.2 29L-50.2 -29Z" fill="#000"></path></g><g transform="translate(796 71)"><path d="M0 -36L31.2 -18L31.2 18L0 36L-31.2 18L-31.2 -18Z" fill="#000"></path></g><g transform="translate(460 413)"><path d="M0 -65L56.3 -32.5L56.3 32.5L0 65L-56.3 32.5L-56.3 -32.5Z" fill="#000"></path></g><g transform="translate(134 365)"><path d="M0 -45L39 -22.5L39 22.5L0 45L-39 22.5L-39 -22.5Z" fill="#000"></path></g><g transform="translate(101 509)"><path d="M0 -56L48.5 -28L48.5 28L0 56L-48.5 28L-48.5 -28Z" fill="#000"></path></g><g transform="translate(382 76)"><path d="M0 -46L39.8 -23L39.8 23L0 46L-39.8 23L-39.8 -23Z" fill="#000"></path></g><g transform="translate(70 237)"><path d="M0 -53L45.9 -26.5L45.9 26.5L0 53L-45.9 26.5L-45.9 -26.5Z" fill="#000"></path></g><g transform="translate(730 352)"><path d="M0 -52L45 -26L45 26L0 52L-45 26L-45 -26Z" fill="#000"></path></g></g></svg>