<svg id="visual" viewBox="0 0 900 450" width="900" height="450" xmlns="http://www.w3.org/2000/svg" xmlns:xlink="http://www.w3.org/1999/xlink" version="1.1"><g fill="#000"><circle r="50" cx="825" cy="239"></circle><circle r="22" cx="91" cy="304"></circle><circle r="42" cx="509" cy="386"></circle><circle r="23" cx="767" cy="339"></circle><circle r="27" cx="417" cy="178"></circle><circle r="32" cx="228" cy="117"></circle><circle r="23" cx="817" cy="108"></circle><circle r="31" cx="576" cy="162"></circle><circle r="26" cx="263" cy="336"></circle><circle r="21" cx="651" cy="273"></circle><circle r="41" cx="110" cy="201"></circle><circle r="29" cx="87" cy="81"></circle><circle r="23" cx="528" cy="51"></circle><circle r="30" cx="363" cy="289"></circle><circle r="46" cx="732" cy="56"></circle><circle r="25" cx="390" cy="58"></circle><circle r="34" cx="271" cy="216"></circle><circle r="35" cx="173" cy="397"></circle><circle r="34" cx="714" cy="180"></circle><circle r="21" cx="362" cy="398"></circle><circle r="28" cx="513" cy="275"></circle><circle r="32" cx="638" cy="393"></circle><circle r="40" cx="631" cy="68"></circle><circle r="41" cx="849" cy="400"></circle></g></svg>