<svg id="visual" viewBox="0 0 900 450" width="900" height="450" xmlns="http://www.w3.org/2000/svg" xmlns:xlink="http://www.w3.org/1999/xlink" version="1.1"><path d="M0 205L21.5 199.5C43 194 86 183 128.8 169.8C171.7 156.7 214.3 141.3 257.2 155C300 168.7 343 211.3 385.8 222.5C428.7 233.7 471.3 213.3 514.2 189.3C557 165.3 600 137.7 642.8 140.7C685.7 143.7 728.3 177.3 771.2 185.5C814 193.7 857 176.3 878.5 167.7L900 159L900 0L878.5 0C857 0 814 0 771.2 0C728.3 0 685.7 0 642.8 0C600 0 557 0 514.2 0C471.3 0 428.7 0 385.8 0C343 0 300 0 257.2 0C214.3 0 171.7 0 128.8 0C86 0 43 0 21.5 0L0 0Z" fill="#83A2B5" stroke-linecap="round" stroke-linejoin="miter"></path></svg>