<svg id="visual" viewBox="0 0 900 600" width="900" height="600" xmlns="http://www.w3.org/2000/svg" xmlns:xlink="http://www.w3.org/1999/xlink" version="1.1"><path d="M0 239L30 248.8C60 258.7 120 278.3 180 265.7C240 253 300 208 360 195.5C420 183 480 203 540 224.8C600 246.7 660 270.3 720 263.8C780 257.3 840 220.7 870 202.3L900 184L900 0L870 0C840 0 780 0 720 0C660 0 600 0 540 0C480 0 420 0 360 0C300 0 240 0 180 0C120 0 60 0 30 0L0 0Z" fill="#83A2B5" stroke-linecap="round" stroke-linejoin="miter"></path></svg>