<svg id="visual" viewBox="0 0 960 300" width="960" height="300" xmlns="http://www.w3.org/2000/svg" xmlns:xlink="http://www.w3.org/1999/xlink" version="1.1"><path d="M0 162L20 160.8C40 159.7 80 157.3 120 150C160 142.7 200 130.3 240 135.2C280 140 320 162 360 166.7C400 171.3 440 158.7 480 155C520 151.3 560 156.7 600 158.5C640 160.3 680 158.7 720 158.3C760 158 800 159 840 161.3C880 163.7 920 167.3 940 169.2L960 171L960 0L940 0C920 0 880 0 840 0C800 0 760 0 720 0C680 0 640 0 600 0C560 0 520 0 480 0C440 0 400 0 360 0C320 0 280 0 240 0C200 0 160 0 120 0C80 0 40 0 20 0L0 0Z" fill="#223051" stroke-linecap="round" stroke-linejoin="miter"></path></svg>