<svg id="visual" viewBox="0 0 900 300" width="900" height="300" xmlns="http://www.w3.org/2000/svg" xmlns:xlink="http://www.w3.org/1999/xlink" version="1.1"><path d="M0 191L15 175.7C30 160.3 60 129.7 90 119C120 108.3 150 117.7 180 130.5C210 143.3 240 159.7 270 170C300 180.3 330 184.7 360 179.3C390 174 420 159 450 153.2C480 147.3 510 150.7 540 149C570 147.3 600 140.7 630 142C660 143.3 690 152.7 720 154.5C750 156.3 780 150.7 810 153.5C840 156.3 870 167.7 885 173.3L900 179L900 0L885 0C870 0 840 0 810 0C780 0 750 0 720 0C690 0 660 0 630 0C600 0 570 0 540 0C510 0 480 0 450 0C420 0 390 0 360 0C330 0 300 0 270 0C240 0 210 0 180 0C150 0 120 0 90 0C60 0 30 0 15 0L0 0Z" fill="#223051" stroke-linecap="round" stroke-linejoin="miter"></path></svg>